<svg width="20" height="20" viewBox="0 0 20 20" fill="none" xmlns="http://www.w3.org/2000/svg">
<g id="footer_facebook" clip-path="url(#clip0_40_4687)">
<path id="Vector" d="M10.001 0C4.47901 0 0.00201416 4.477 0.00201416 9.999C0.00201416 14.989 3.65801 19.125 8.43901 19.878V12.89H5.89901V9.999H8.43901V7.796C8.43901 5.288 9.93201 3.905 12.215 3.905C13.309 3.905 14.455 4.1 14.455 4.1V6.559H13.191C11.951 6.559 11.563 7.331 11.563 8.122V9.997H14.334L13.891 12.888H11.563V19.876C16.344 19.127 20 14.99 20 9.999C20 4.477 15.523 0 10.001 0Z" fill="#999999"/>
</g>
<defs>
<clipPath id="clip0_40_4687">
<rect width="20" height="20" fill="white"/>
</clipPath>
</defs>
</svg>
